<?xml version="1.0" encoding="UTF-8"?>
<!-- Generated by Pixelmator Pro 3.4.3 -->
<svg width="1024" height="1024" viewBox="0 0 1024 1024" xmlns="http://www.w3.org/2000/svg">
    <linearGradient id="linearGradient1" x1="517.057489" y1="1023.578965" x2="517.057489" y2="-0.566904" gradientUnits="userSpaceOnUse">
        <stop offset="0" stop-color="#1c70f2" stop-opacity="1"/>
        <stop offset="1" stop-color="#1ac9fb" stop-opacity="1"/>
    </linearGradient>
    <path id="Ellipse" fill="url(#linearGradient1)" fill-rule="evenodd" stroke="none" d="M 1024 512 C 1024 229.230225 794.769775 0 512 0 C 229.230209 0 0 229.230225 0 512 C 0 794.769775 229.230209 1024 512 1024 C 794.769775 1024 1024 794.769775 1024 512 Z"/>
    <linearGradient id="linearGradient2" x1="456.787226" y1="934.893366" x2="456.863318" y2="187.824217" gradientUnits="userSpaceOnUse">
        <stop offset="0" stop-color="#41b0f6" stop-opacity="1"/>
        <stop offset="1" stop-color="#d5d5d5" stop-opacity="1"/>
    </linearGradient>
    <path id="bxs-plane-alt" fill="url(#linearGradient2)" stroke="none" d="M 209.382202 564.583862 L 162.987976 610.968689 L 325.344086 680.569397 L 394.944611 842.972534 L 441.338806 796.58783 L 418.155884 680.578857 L 526.857483 571.899414 L 645.265991 824.658813 L 689.199463 780.734253 L 650.192627 448.622314 L 742.981018 355.819946 C 760.039612 339.347473 766.882813 314.952454 760.880371 292.011047 C 754.877991 269.069641 736.964111 251.152161 714.023926 245.145081 C 691.083801 239.138 666.687378 245.976135 650.211487 263.031372 L 554.962219 358.261292 L 222.858185 319.153992 L 181.352737 360.683777 L 432.119324 481.112122 L 325.386353 587.823242 L 209.382202 564.583862 Z"/>
    <linearGradient id="linearGradient3" x1="1044" y1="1070.999997" x2="1302.000005" y2="1070.999997" gradientUnits="userSpaceOnUse">
        <stop offset="0" stop-color="#d5d5d5" stop-opacity="1"/>
        <stop offset="1" stop-color="#d5d5d5" stop-opacity="1"/>
    </linearGradient>
    <path id="path1" fill="url(#linearGradient3)" fill-rule="evenodd" stroke="none" d="M 1302 1071 C 1302 999.755249 1244.244751 942 1173 942 C 1101.755249 942 1044 999.755249 1044 1071 C 1044 1142.244751 1101.755249 1200 1173 1200 C 1244.244751 1200 1302 1142.244751 1302 1071 Z"/>
</svg>
